PathFileType	4	(X/Y/Z)	D:\TRACE\v60_Jaco2_6-2-23\BothDRS_Motion2_6-platform.trc
DataRate	CameraRate	NumFrames	NumMarkers	Units	OrigDataRate	OrigDataStartFrame	OrigNumFrames
100.00	100.00	      48	5	mm	100.00	6563	      7500
Frame#	Time	Left_Front			Right_Front			Left_Aft			Right_Aft			Post			
		X1	Y1	Z1	X2	Y2	Z2	X3	Y3	Z3	X4	Y4	Z4	X5	Y5	Z5	

6563	65.620	-767.86157	17.15066	-637.26758	802.33063	18.35893	-642.46881	-675.80756	2.02512	497.84979	764.82520	0.60136	506.93085	18.34816	1319.79749	-950.53723	
6564	65.630	-766.90491	18.71860	-636.73242	802.98492	19.70757	-642.10284	-675.07861	0.94025	498.28241	767.14441	0.43318	507.09067	19.57303	1322.03418	-946.88531	
6565	65.640	-766.03931	20.30046	-636.29938	803.82355	21.35807	-641.78070	-673.94275	0.04128	498.51273	768.49146	-0.89405	507.87207	20.74982	1324.36792	-942.60901	
6566	65.650	-764.88483	21.50262	-636.08398	805.01862	23.25622	-641.40179	-672.88599	-1.21917	498.65961	769.09100	-2.01333	508.14053	21.07381	1326.73230	-938.74890	
6567	65.660	-763.75562	22.63583	-635.79254	806.01740	24.32216	-640.95197	-672.16949	-2.18931	499.28940	770.22852	-2.84708	508.38297	22.64914	1328.70874	-934.10785	
6568	65.670	-762.93524	24.40053	-635.58698	806.76355	25.77402	-640.61523	-671.24487	-3.28570	499.47552	770.84344	-4.10790	508.84586	23.14326	1330.61328	-929.63831	
6569	65.680	-762.33557	26.26865	-634.83081	807.66785	27.15606	-640.14935	-670.16644	-4.54767	499.84045	771.55145	-5.24606	508.77069	24.03090	1332.94678	-924.89941	
6570	65.690	-761.53772	28.04844	-634.35327	808.40845	28.82682	-639.78339	-669.49622	-5.30040	500.13782	772.92590	-6.01495	509.61157	25.17805	1334.84961	-920.10754	
6571	65.700	-760.67957	29.23874	-633.82941	809.32416	30.28935	-639.51581	-668.46289	-6.37921	500.42297	773.41071	-7.16458	509.89368	25.27812	1337.16089	-915.74225	
6572	65.710	-759.96777	30.53199	-633.61749	810.13641	31.85056	-638.99597	-667.59918	-7.39494	500.76895	774.18585	-8.35214	509.97211	26.44502	1339.20691	-911.86163	
6573	65.720	-759.02905	32.31939	-633.58588	810.87225	33.43179	-638.64136	-666.79291	-8.71927	501.20218	775.02698	-9.33418	509.97589	27.15405	1341.51404	-908.85254	
6574	65.730	-758.33936	33.68811	-632.82104	811.54694	34.62564	-638.26611	-666.34650	-9.61656	501.51846	775.76385	-10.48564	510.94583	27.98565	1343.41223	-905.91895	
6575	65.740	-757.43707	34.92576	-632.23492	812.44556	36.16946	-637.71436	-665.25989	-10.86164	501.99573	776.41119	-11.72160	511.34265	28.81629	1345.72681	-903.75781	
6576	65.750	-756.86017	36.73792	-631.91180	813.08655	37.78245	-637.47058	-664.70331	-11.72323	502.07556	777.62726	-12.64978	511.43732	29.46925	1347.73230	-901.96521	
6577	65.760	-756.12445	38.29787	-631.51929	813.89618	39.12909	-637.06995	-664.02985	-12.82892	502.37308	778.11920	-13.78946	511.77740	29.87374	1349.88806	-899.70038	
6578	65.770	-755.56317	39.65549	-631.05878	814.51459	40.66542	-636.56293	-663.57831	-13.70862	502.66263	778.43732	-15.04808	511.96133	30.89651	1351.83118	-896.97998	
6579	65.780	-755.16388	41.11702	-631.00360	815.06073	41.97176	-636.35077	-662.58514	-14.90427	503.06256	778.97607	-16.07755	512.33746	31.63164	1353.77039	-894.43280	
6580	65.790	-754.44208	42.21946	-630.28027	815.69904	43.15080	-635.69440	-662.04401	-15.87280	503.19498	779.94537	-17.01682	512.64392	31.95237	1355.48975	-891.30981	
6581	65.800	-753.77563	43.55294	-629.93774	816.18207	44.67127	-635.34351	-661.59430	-16.58338	503.38831	780.55194	-17.91632	512.19995	32.37716	1357.37964	-887.64246	
6582	65.810	-753.07959	45.17009	-629.66187	816.58344	45.80154	-635.10992	-660.84119	-17.66468	503.78992	781.21368	-18.61027	513.01666	33.77664	1358.89197	-884.27606	
6583	65.820	-752.45490	46.14162	-629.14728	817.35480	47.11034	-634.65906	-660.59589	-18.35602	504.10342	781.40961	-19.87213	513.36102	33.71217	1360.73376	-880.57532	
6584	65.830	-752.16803	47.32303	-628.80920	817.81366	48.28722	-634.28979	-659.85272	-19.50240	504.22244	781.95593	-20.86938	513.45227	33.93977	1362.37634	-876.59119	
6585	65.840	-751.65179	48.78817	-628.72113	818.12726	49.54008	-633.95215	-659.57233	-20.28069	504.34021	782.66205	-21.57558	513.78143	34.53682	1364.07874	-872.53943	
6586	65.850	-751.41632	49.83902	-628.32263	818.56586	50.77004	-633.53430	-659.11981	-21.13474	504.70178	782.88354	-22.52933	513.87360	34.90020	1365.65515	-869.02972	
6587	65.860	-750.99756	51.27081	-627.88574	818.87646	51.87612	-633.09314	-658.59698	-22.03007	505.03976	783.46039	-23.39040	514.12463	35.25361	1367.26733	-865.97235	
6588	65.870	-750.81464	52.44047	-627.64441	819.23663	53.36460	-632.83282	-658.41321	-22.97283	505.15448	783.21692	-24.30221	514.55554	35.60153	1368.95508	-863.40167	
6589	65.880	-750.55566	53.67797	-627.20929	819.35583	54.35450	-632.55969	-658.86926	-22.87668	504.68356	783.47668	-25.06871	514.94971	35.73445	1370.66956	-861.52258	
6590	65.890	-750.40387	54.37807	-626.72589	819.57745	55.36024	-632.17151	-658.54272	-24.04207	505.00769	783.63696	-26.09928	515.00146	36.22063	1372.07983	-859.46545	
6591	65.900	-750.02100	55.61374	-626.38953	819.68671	56.63080	-631.85699	-658.35797	-24.97382	505.40903	783.21405	-26.30612	516.70123	36.15916	1373.64551	-857.70465	
6592	65.910	-750.00885	56.86641	-626.06085	819.75500	57.60139	-631.56329	-658.29889	-25.59689	505.31113	783.59412	-27.26004	516.67419	36.31047	1374.99695	-856.04956	
6593	65.920	-750.00623	58.21047	-625.78625	819.84302	58.75572	-631.15985	-658.33154	-25.90995	505.68405	783.40399	-27.76534	516.73224	36.73417	1376.32751	-853.87677	
6594	65.930	-750.08234	58.91024	-625.35260	819.87134	59.62668	-630.94916	-657.94745	-27.14189	506.23843	784.00012	-29.03580	516.34119	36.75717	1377.72278	-851.62695	
6595	65.940	-750.14398	59.29882	-625.14862	819.91187	60.16545	-630.56140	-657.87585	-27.89801	506.48416	784.15833	-29.97128	516.23486	36.51478	1378.79431	-849.25500	
6596	65.950	-750.14081	60.01728	-624.68695	819.92603	61.14399	-630.25232	-658.04346	-28.45108	506.48663	784.25830	-30.58994	516.27057	36.55138	1379.80090	-846.86304	
6597	65.960	-750.18854	61.32023	-624.58478	819.90771	62.13042	-629.97498	-658.07080	-28.78799	506.38889	784.15631	-31.04431	516.51154	36.64343	1381.19299	-843.91357	
6598	65.970	-750.24902	62.49814	-624.19836	819.79303	63.19188	-629.70557	-658.30774	-29.29915	506.60092	784.13489	-31.93234	516.56134	36.81944	1382.25513	-841.54553	
6599	65.980	-750.36292	63.28089	-623.68250	819.63147	63.93837	-629.25818	-658.62811	-29.67667	506.66733	784.21222	-32.64594	516.65735	36.26551	1383.51135	-839.90228	
6600	65.990	-750.72632	63.87701	-623.65363	819.24939	64.73562	-629.06921	-658.91565	-30.16304	506.92288	783.38690	-33.31066	517.26837	36.27108	1384.52905	-837.44397	
6601	66.000	-750.93048	64.55839	-623.48633	819.08759	65.78826	-628.69983	-658.65491	-31.52231	507.56174	783.22272	-33.84291	517.49512	35.71492	1385.83801	-835.92108	
6602	66.010	-751.20624	65.54127	-623.41650	818.74799	66.42502	-628.48651	-659.02240	-32.15235	507.64633	783.10388	-34.47888	517.25311	35.41810	1386.63574	-833.68134	
6603	66.020	-751.56580	66.36300	-623.09460	818.37799	66.95313	-628.28156	-659.46643	-32.71552	507.94064	782.86768	-34.76935	517.41162	34.86758	1387.49609	-832.06091	
6604	66.030	-751.94141	66.97202	-622.69629	818.11877	67.45913	-628.20392	-659.70856	-32.89322	508.08109	782.43170	-35.09493	517.45929	34.64766	1388.18225	-830.41400	
6605	66.040	-752.26398	67.42905	-622.28180	817.94342	68.07764	-627.88019	-659.93408	-33.17048	508.16055	781.69794	-36.32664	516.07269	34.64056	1388.82532	-829.48535	
6606	66.050	-752.71704	67.49993	-622.29468	817.49615	68.79945	-627.74371	-660.50391	-33.77611	508.19818	781.00977	-36.06921	517.99377	34.03772	1389.48950	-828.63037	
6607	66.060	-752.98395	68.11143	-622.02979	817.04163	69.14183	-627.65112	-660.87518	-34.17100	508.26010	780.90924	-36.39414	517.98883	33.64216	1390.16064	-827.80371	
6608	66.070	-753.21405	68.74746	-621.98413	816.46167	69.47782	-627.62927	-661.05817	-34.63338	508.39319	781.07806	-36.91355	517.77454	33.50969	1390.87036	-827.23676	
6609	66.080	-753.59161	69.51370	-621.82092	816.05194	70.12823	-627.39813	-661.13177	-35.63137	508.72028	780.67773	-37.38894	517.85303	32.56719	1391.79565	-826.74866	
6610	66.090	-754.20801	70.11342	-621.74158	815.54852	70.61482	-627.11060	-662.17755	-35.10918	508.40768	779.75946	-37.80730	517.67407	32.59847	1392.28479	-826.12054	
